<!DOCTYPE svg PUBLIC "-//W3C//DTD SVG 1.1//EN" "http://www.w3.org/Graphics/SVG/1.1/DTD/svg11.dtd">
<!-- Uploaded to: SVG Repo, www.svgrepo.com, Transformed by: SVG Repo Mixer Tools -->
<svg width="800px" height="800px" viewBox="0 0 24.00 24.00" xmlns="http://www.w3.org/2000/svg" fill="#ffffff">
<g id="SVGRepo_bgCarrier" stroke-width="0"/>
<g id="SVGRepo_tracerCarrier" stroke-linecap="round" stroke-linejoin="round" stroke="#CCCCCC" stroke-width="1.6799999999999997"/>
<g id="SVGRepo_iconCarrier">
<path d="M18 5.498l-5.5-2.26L7 5.499v5.655l-5 2.054v6.443l5.5 2.259 5-2.054 5 2.054 5.5-2.26v-6.442l-5-2.054zm-.5 9.462l-3.432-1.404 3.576-1.468 3.432 1.41zM12 8.127v4.669l-4-1.643V6.492zm1 4.669V8.127l4-1.635v4.661zm-2.068.76L7.5 14.96l-3.576-1.463 3.432-1.41zM8 15.836l4-1.636v4.78l-4 1.642zm8.076-10.047L12.5 7.25 8.924 5.79 12.5 4.32zM3 14.2l4 1.636v4.786L3 18.98zm10 0l4 1.636v4.786l-4-1.642zm5 6.422v-4.786l4-1.636v4.78z"/>
<path fill="none" d="M0 0h24v24H0z"/>
</g>
</svg>